<?xml version="1.0" encoding="utf-8"?>
<!-- Generator: Adobe Illustrator 25.2.3, SVG Export Plug-In . SVG Version: 6.00 Build 0)  -->
<svg version="1.1" xmlns="http://www.w3.org/2000/svg" xmlns:xlink="http://www.w3.org/1999/xlink" x="0px" y="0px"
	 viewBox="0 0 174.36 220.51" style="enable-background:new 0 0 174.36 220.51;" xml:space="preserve">
<style type="text/css">
	.st0{fill:#75E6DA;}
	.st1{fill:#05445E;}
	.st2{fill:#FFFF00;}
	.st3{fill:#F41C6A;}
	.st4{fill:#FFFFFF;}
	.st5{fill:#D13239;}
	.st6{fill:#808285;}
	.st7{fill:#1D1D1B;}
	.st8{fill:none;stroke:#75E6DA;stroke-miterlimit:10;}
	.st9{fill:#D4F1F4;}
	.st10{fill:#189AB4;}
	.st11{fill:#F4E927;}
	.st12{fill:#FBB03B;}
	.st13{fill:none;stroke:#05445E;stroke-miterlimit:10;}
	.st14{fill:none;}
	.st15{fill:none;stroke:#F41C6A;stroke-miterlimit:10;}
	.st16{fill:#FFFFFF;stroke:#F41C6A;stroke-miterlimit:10;}
	.st17{fill:#FFFFFF;stroke:#000000;stroke-miterlimit:10;}
	.st18{fill:none;stroke:#FFFFFF;stroke-miterlimit:10;}
	.st19{fill:none;stroke:#FBB03B;stroke-width:2;stroke-miterlimit:10;}
	.st20{fill:none;stroke:#FFFFFF;stroke-width:2;stroke-miterlimit:10;}
	.st21{fill:#DCF3F9;}
</style>
<g id="Colunas">
</g>
<g id="Camada_4">
</g>
<g id="Camada_3">
</g>
<g id="Camada_2">
	<path class="st1" d="M168.24,220.51H25.69c-3.38,0-6.12-2.74-6.12-6.12V29.05c0-3.38,2.74-6.12,6.12-6.12h142.56
		c3.38,0,6.12,2.74,6.12,6.12v185.34C174.36,217.77,171.62,220.51,168.24,220.51z"/>
	<path class="st4" d="M155.93,209.73H38c-3.38,0-6.12-2.74-6.12-6.12V39.83c0-3.38,2.74-6.12,6.12-6.12h117.94
		c3.38,0,6.12,2.74,6.12,6.12v163.78C162.05,206.99,159.31,209.73,155.93,209.73z"/>
	<path class="st12" d="M96.65,68.62l-7.38-7.51c0,0-4.35,8.03-16.99,1.19c-12.64,6.85-16.99-1.19-16.99-1.19l-7.38,7.51
		c9.22,5.66,4.87,21.2,2.24,24.89c-2.63,3.69,0.28,11.81,7.9,15.41c6.98,3.29,13.04,7.11,13.04,7.11h1.19h1.19
		c0,0,6.06-3.82,13.04-7.11c7.62-3.6,10.54-11.72,7.9-15.41S87.43,74.28,96.65,68.62z"/>
	<rect x="59.51" y="69.41" class="st4" width="25.29" height="3.42"/>
	<g>
		<path class="st4" d="M72.29,108.61c-8.54,0-15.49-6.95-15.49-15.49s6.95-15.49,15.49-15.49s15.49,6.95,15.49,15.49
			S80.83,108.61,72.29,108.61z M72.29,79.63c-7.44,0-13.49,6.05-13.49,13.49c0,7.44,6.05,13.49,13.49,13.49
			c7.44,0,13.49-6.05,13.49-13.49C85.78,85.68,79.73,79.63,72.29,79.63z"/>
	</g>
	<polygon class="st4" points="72.29,86.27 74.3,90.35 78.8,91 75.55,94.18 76.31,98.66 72.29,96.54 68.26,98.66 69.03,94.18 
		65.77,91 70.27,90.35 	"/>
	<rect x="105.63" y="61.11" class="st1" width="40.3" height="4.16"/>
	<rect x="105.63" y="73.49" class="st1" width="40.3" height="4.16"/>
	<rect x="105.63" y="86.49" class="st1" width="40.3" height="4.16"/>
	<rect x="105.63" y="99.5" class="st1" width="40.3" height="4.16"/>
	<rect x="105.63" y="112.51" class="st1" width="40.3" height="4.16"/>
	<rect x="49.13" y="127.09" class="st1" width="96.8" height="4.16"/>
	<rect x="49.13" y="139.63" class="st1" width="96.8" height="4.16"/>
	<rect x="49.13" y="152.16" class="st1" width="96.8" height="4.16"/>
	<rect x="49.13" y="164.7" class="st1" width="96.8" height="4.16"/>
	<g>
		
			<rect x="20.09" y="111.72" transform="matrix(0.947 -0.3214 0.3214 0.947 -50.148 16.7251)" class="st3" width="11.01" height="97.11"/>
		<polygon class="st12" points="35.98,208.03 46.41,204.49 44.88,217.11 		"/>
		
			<rect x="1.93" y="103.16" transform="matrix(0.947 -0.3214 0.3214 0.947 -33.9207 8.0543)" class="st1" width="11.01" height="7.25"/>
		
			<rect x="3.79" y="110.1" transform="matrix(0.947 -0.3214 0.3214 0.947 -35.5807 8.9413)" class="st12" width="11.01" height="4.31"/>
	</g>
	
		<rect x="130.09" y="178.18" transform="matrix(0.7071 -0.7071 0.7071 0.7071 -94.6344 149.7856)" class="st3" width="6.8" height="21.9"/>
	
		<rect x="130.09" y="178.18" transform="matrix(-0.7071 -0.7071 0.7071 -0.7071 94.1491 417.251)" class="st3" width="6.8" height="21.9"/>
	<rect x="53.76" y="14.92" class="st3" width="87.44" height="26.95"/>
	<path class="st3" d="M97.48,1.44C90.03,1.44,84,7.48,84,14.92c0,7.44,6.03,13.48,13.48,13.48s13.48-6.03,13.48-13.48
		C110.95,7.48,104.92,1.44,97.48,1.44z M97.48,21.21c-3.47,0-6.29-2.82-6.29-6.29c0-3.47,2.82-6.29,6.29-6.29s6.29,2.82,6.29,6.29
		C103.77,18.39,100.95,21.21,97.48,21.21z"/>
	<rect x="55.04" y="37.81" class="st4" width="85.1" height="1.29"/>
</g>
</svg>
