<svg xmlns="http://www.w3.org/2000/svg" viewBox="0 0 95.46 148.78"><defs><style>.cls-1{fill:none;stroke:#f41c6a;stroke-miterlimit:10;stroke-width:2px;}</style></defs><g id="Camada_2" data-name="Camada 2"><path class="cls-1" d="M90.06,36.64q0,13.68-7.66,22.37T60.67,70.63v.78q17.19,2.15,25.49,10.94t8.3,23q0,20.42-14.16,31.4t-40.24,11a116.51,116.51,0,0,1-20.75-1.71,70.82,70.82,0,0,1-18.31-6V124.63a89.22,89.22,0,0,0,19.78,7A89.76,89.76,0,0,0,40.65,134q37,0,37-29,0-26-40.82-26H22.78v-14H37q16.7,0,26.46-7.37t9.77-20.46q0-10.45-7.18-16.41t-19.48-6a59.88,59.88,0,0,0-17.68,2.54Q20.64,19.95,10,26.78L1.78,15.84A68.26,68.26,0,0,1,22,5,73.58,73.58,0,0,1,46.21,1Q67,1,78.54,10.52T90.06,36.64Z"/></g></svg>