<svg xmlns="http://www.w3.org/2000/svg" viewBox="0 0 95.85 146.82"><defs><style>.cls-1{fill:none;stroke:#f41c6a;stroke-miterlimit:10;stroke-width:2px;}</style></defs><g id="Camada_2" data-name="Camada 2"><path class="cls-1" d="M94.85,145.82H1v-14L38.6,94.07Q55.79,76.69,61.25,69.26a63.43,63.43,0,0,0,8.21-14.45,41.46,41.46,0,0,0,2.73-15.14q0-11.43-6.93-18.11T46,14.87A48.24,48.24,0,0,0,29.17,17.8q-8,2.93-17.72,10.64l-8.59-11Q22.59,1,45.82,1,66,1,77.37,11.3T88.79,39q0,13.57-7.61,26.85T52.66,99.44L21.41,130v.79H94.85Z"/></g></svg>