<svg xmlns="http://www.w3.org/2000/svg" viewBox="0 0 138.41 221.07"><defs><style>.cls-1{fill:#f41c6a;}.cls-2{fill:none;stroke:#05445e;stroke-miterlimit:10;}</style></defs><g id="Camada_2" data-name="Camada 2"><path class="cls-1" d="M20.29,38.44H93.76a.14.14,0,0,1,.14.14V56.52a.14.14,0,0,1-.14.14H25a.15.15,0,0,1-.15-.14V44.82Z"/><path class="cls-1" d="M20.29,65.06h83.25a.14.14,0,0,1,.14.14V95.58a.14.14,0,0,1-.14.14H25a.15.15,0,0,1-.15-.14V71.44Z"/><path class="cls-1" d="M20.29,103.48h54.8a.14.14,0,0,1,.14.14v14.56a.14.14,0,0,1-.14.14H25a.15.15,0,0,1-.15-.14v-8.33Z"/><path class="cls-1" d="M20.29,126.36H57.77a.14.14,0,0,1,.14.14v14.57a.14.14,0,0,1-.14.14H25a.15.15,0,0,1-.15-.14v-8.33Z"/><rect class="cls-2" x="0.5" y="0.5" width="137.41" height="220.07" rx="8.95"/><rect class="cls-2" x="12.46" y="13.55" width="114.57" height="185.99" rx="3.13"/><rect class="cls-2" x="58.94" y="207.9" width="21.41" height="4.23"/><line class="cls-2" x1="12.46" y1="29.58" x2="127.03" y2="29.58"/></g></svg>